<?xml version="1.0" encoding="utf-8"?>
<!-- Generator: Adobe Illustrator 17.1.0, SVG Export Plug-In . SVG Version: 6.00 Build 0)  -->
<!DOCTYPE svg PUBLIC "-//W3C//DTD SVG 1.1//EN" "http://www.w3.org/Graphics/SVG/1.1/DTD/svg11.dtd">
<svg version="1.1" id="Layer_1" xmlns="http://www.w3.org/2000/svg" xmlns:xlink="http://www.w3.org/1999/xlink" x="0px" y="0px"
	 viewBox="0 0 489 489" enable-background="new 0 0 489 489" xml:space="preserve">
<g>
	<path fill="#002C40" d="M-244.5,186.7l22.8,22.3l11.5-101.2L-313.8,119l22.8,22.3l-43.8,43.1l-43.8-43.1l22.8-22.3l-103.7-11.2
		l11.5,101.2l22.8-22.3l44.2,43.1l-40.9,40.3l-0.1-0.1c-10,15.8-15.3,34-15.4,52.6c0,55.2,46,100.1,102.6,100.1
		c56.6,0,102.6-44.9,102.6-100.1c0-18.6-5.3-36.8-15.3-52.6l-0.2,0.1l-40.9-40.3L-244.5,186.7z M-304.2,304.6
		c3.3,5.4,5.1,11.6,5.1,18c0,19.2-16,34.8-35.6,34.8c-19.6,0-35.6-15.6-35.6-34.7c0-6.5,1.8-12.7,5.3-18.2l0,0l30.3-29.6
		L-304.2,304.6z"/>
	<g>
		<circle fill="#BFC0C2" cx="-127" cy="119.8" r="53.5"/>
		<g>
			<path fill="#002C40" d="M-124.8,120c0,17.4-9.7,21.7-16,21.7c-10,0-16-7.9-16-21.4c0-15,7.9-21.7,16.1-21.7
				C-130.8,98.6-124.8,106.8-124.8,120z M-145.7,120c0,7.2,1.1,13.2,5.1,13.2c3.6,0,4.5-7,4.5-13.2c0-5.7-0.9-13-4.7-13
				C-144.8,107-145.7,114.3-145.7,120z"/>
			<path fill="#002C40" d="M-118.9,130.9c1.6,1,4.7,2.2,7.5,2.2c2.9,0,4.5-1.3,4.5-3.8c0-2.1-1.2-3.5-4.9-5.6
				c-6.8-3.8-8.5-8.2-8.5-12c0-7.5,5.4-13.2,13.8-13.2c3.5,0,6.2,0.9,8.5,1.9l-2,8.2c-1.6-0.9-3.6-1.7-5.8-1.7
				c-2.8,0-4.2,1.7-4.2,3.6s0.9,2.9,4.9,5.2c6.2,3.5,8.5,7.9,8.5,12.6c0,8.5-6.2,13.2-14.8,13.2c-3.5,0-7.6-0.9-9.6-2.4
				L-118.9,130.9z"/>
		</g>
	</g>
</g>
<g>
	<path fill="#FFFFFF" d="M273.1,172.4l28.4,27.7l14.3-126l-129.1,14l28.4,27.8l-54.5,53.7l-54.5-53.7l28.4-27.8L5.5,74.1l14.3,126
		l28.4-27.7l55,53.7l-51,50.2l-0.1-0.1c-12.5,19.7-19.1,42.3-19.1,65.4c0,68.7,57.3,124.6,127.7,124.6
		c70.4,0,127.7-55.9,127.7-124.6c0-23.2-6.6-45.8-19-65.5l-0.3,0.2l-51-50.2L273.1,172.4z M198.6,319.2c4.1,6.7,6.4,14.4,6.4,22.4
		c0,23.9-19.9,43.3-44.4,43.3c-24.4,0-44.4-19.4-44.4-43.2c0-8.1,2.3-15.8,6.7-22.7l0,0l37.7-36.8L198.6,319.2z"/>
	<circle fill="#BFC0C2" cx="419.2" cy="85.4" r="66.6"/>
	<path fill="#002C40" d="M422,85.6c0,21.7-12,27-19.9,27c-12.4,0-19.9-9.8-19.9-26.7c0-18.7,9.8-27,20.1-27
		C414.5,59,422,69.3,422,85.6z M396,85.6c0,8.9,1.4,16.4,6.4,16.4c4.5,0,5.6-8.7,5.6-16.4c0-7.1-1.2-16.2-5.8-16.2
		C397.1,69.5,396,78.5,396,85.6z"/>
	<path fill="#002C40" d="M429.4,99.3c2,1.3,5.8,2.8,9.4,2.8c3.6,0,5.6-1.6,5.6-4.7c0-2.7-1.5-4.4-6.1-7c-8.5-4.8-10.5-10.2-10.5-15
		c0-9.4,6.7-16.4,17.1-16.4c4.4,0,7.8,1.1,10.5,2.3L453,71.5c-2-1.2-4.5-2.1-7.2-2.1c-3.5,0-5.2,2.1-5.2,4.5c0,2.3,1.2,3.6,6.1,6.5
		c7.7,4.4,10.5,9.8,10.5,15.7c0,10.6-7.7,16.4-18.4,16.4c-4.4,0-9.5-1.2-11.9-3L429.4,99.3z"/>
</g>
<g>
	<path fill="#FFFFFF" d="M-504.4,548.7l2.1,2.1l1.1-9.3l-9.6,1l2.1,2.1l-4,4l-4-4l2.1-2.1l-9.6-1l1.1,9.3l2.1-2.1l4.1,4l-3.8,3.7
		l0,0c-0.9,1.5-1.4,3.1-1.4,4.8c0,5.1,4.2,9.2,9.5,9.2c5.2,0,9.5-4.1,9.5-9.2c0-1.7-0.5-3.4-1.4-4.9l0,0l-3.8-3.7L-504.4,548.7z
		 M-509.9,559.6c0.3,0.5,0.5,1.1,0.5,1.7c0,1.8-1.5,3.2-3.3,3.2c-1.8,0-3.3-1.4-3.3-3.2c0-0.6,0.2-1.2,0.5-1.7l0,0l2.8-2.7
		L-509.9,559.6z"/>
	<g>
		<circle fill="#BFC0C2" cx="-492.1" cy="543.3" r="6.5"/>
		<g>
			<path fill="#002C40" d="M-491.9,543.4c0,2.1-1.2,2.6-1.9,2.6c-1.2,0-1.9-1-1.9-2.6c0-1.8,1-2.6,2-2.6
				C-492.6,540.7-491.9,541.8-491.9,543.4z M-494.4,543.4c0,0.9,0.1,1.6,0.6,1.6c0.4,0,0.6-0.9,0.6-1.6c0-0.7-0.1-1.6-0.6-1.6
				C-494.3,541.8-494.4,542.7-494.4,543.4z"/>
			<path fill="#002C40" d="M-491.2,544.7c0.2,0.1,0.6,0.3,0.9,0.3c0.4,0,0.6-0.2,0.6-0.5c0-0.3-0.1-0.4-0.6-0.7c-0.8-0.5-1-1-1-1.5
				c0-0.9,0.7-1.6,1.7-1.6c0.4,0,0.8,0.1,1,0.2l-0.2,1c-0.2-0.1-0.4-0.2-0.7-0.2c-0.3,0-0.5,0.2-0.5,0.4s0.1,0.4,0.6,0.6
				c0.8,0.4,1,1,1,1.5c0,1-0.8,1.6-1.8,1.6c-0.4,0-0.9-0.1-1.2-0.3L-491.2,544.7z"/>
		</g>
	</g>
</g>
</svg>
