<?xml version="1.0" encoding="utf-8"?>
<!-- Generator: Adobe Illustrator 17.1.0, SVG Export Plug-In . SVG Version: 6.00 Build 0)  -->
<!DOCTYPE svg PUBLIC "-//W3C//DTD SVG 1.1//EN" "http://www.w3.org/Graphics/SVG/1.1/DTD/svg11.dtd">
<svg version="1.1" id="Layer_1" xmlns="http://www.w3.org/2000/svg" xmlns:xlink="http://www.w3.org/1999/xlink" x="0px" y="0px"
	 viewBox="0 0 489 489" enable-background="new 0 0 489 489" xml:space="preserve">
<g>
	<path fill="#002C40" d="M273,170.4l28.5,27.8L315.8,72L186.5,86l28.5,27.8l-54.6,53.8l-54.6-53.7L134.3,86L4.9,72l14.3,126.2
		l28.5-27.8l55.1,53.8l-51.1,50.3l-0.1-0.1c-12.5,19.7-19.1,42.4-19.2,65.5c0,68.8,57.4,124.8,127.9,124.8
		c70.5,0,127.9-56,127.9-124.8c0-23.2-6.6-45.9-19-65.6l-0.3,0.2l-51.1-50.3L273,170.4z M198.5,317.5c4.1,6.7,6.4,14.5,6.4,22.4
		c0,23.9-19.9,43.3-44.4,43.3c-24.5,0-44.4-19.4-44.4-43.3c0-8.1,2.3-15.8,6.7-22.7l0,0l37.8-36.9L198.5,317.5z"/>
	<g>
		<circle fill="#BFC0C2" cx="419.4" cy="87" r="66.7"/>
		<g>
			<path fill="#002C40" d="M422.2,87.3c0,21.7-12,27.1-19.9,27.1c-12.5,0-19.9-9.8-19.9-26.7c0-18.8,9.8-27.1,20.1-27.1
				C414.7,60.5,422.2,70.9,422.2,87.3z M396.2,87.3c0,8.9,1.4,16.4,6.4,16.4c4.5,0,5.6-8.7,5.6-16.4c0-7.1-1.2-16.2-5.9-16.2
				C397.2,71.1,396.2,80.1,396.2,87.3z"/>
			<path fill="#002C40" d="M429.6,100.9c2,1.3,5.9,2.8,9.4,2.8c3.6,0,5.6-1.6,5.6-4.7c0-2.7-1.5-4.4-6.1-7
				c-8.5-4.8-10.5-10.2-10.5-15c0-9.4,6.7-16.4,17.2-16.4c4.4,0,7.8,1.1,10.5,2.3l-2.5,10.2c-2-1.2-4.5-2.1-7.2-2.1
				c-3.5,0-5.2,2.1-5.2,4.5s1.2,3.6,6.1,6.5c7.7,4.4,10.5,9.8,10.5,15.8c0,10.7-7.7,16.4-18.4,16.4c-4.4,0-9.5-1.2-11.9-3
				L429.6,100.9z"/>
		</g>
	</g>
</g>
<g>
	<path fill="#FFFFFF" d="M798.1,172.4l28.4,27.7l14.3-126l-129.1,14l28.4,27.8l-54.5,53.7l-54.5-53.7l28.4-27.8l-129.1-14l14.3,126
		l28.4-27.7l55,53.7l-51,50.2l-0.1-0.1c-12.5,19.7-19.1,42.3-19.1,65.4c0,68.7,57.3,124.6,127.7,124.6
		c70.4,0,127.7-55.9,127.7-124.6c0-23.2-6.6-45.8-19-65.5l-0.3,0.2l-51-50.2L798.1,172.4z M723.6,319.2c4.1,6.7,6.4,14.4,6.4,22.4
		c0,23.9-19.9,43.3-44.4,43.3c-24.4,0-44.4-19.4-44.4-43.2c0-8.1,2.3-15.8,6.7-22.7l0,0l37.7-36.8L723.6,319.2z"/>
	<circle fill="#BFC0C2" cx="944.2" cy="85.4" r="66.6"/>
	<path fill="#002C40" d="M947,85.6c0,21.7-12,27-19.9,27c-12.4,0-19.9-9.8-19.9-26.7c0-18.7,9.8-27,20.1-27
		C939.5,59,947,69.3,947,85.6z M921,85.6c0,8.9,1.4,16.4,6.4,16.4c4.5,0,5.6-8.7,5.6-16.4c0-7.1-1.2-16.2-5.8-16.2
		C922.1,69.5,921,78.5,921,85.6z"/>
	<path fill="#002C40" d="M954.4,99.3c2,1.3,5.8,2.8,9.4,2.8c3.6,0,5.6-1.6,5.6-4.7c0-2.7-1.5-4.4-6.1-7c-8.5-4.8-10.5-10.2-10.5-15
		c0-9.4,6.7-16.4,17.1-16.4c4.4,0,7.8,1.1,10.5,2.3L978,71.5c-2-1.2-4.5-2.1-7.2-2.1c-3.5,0-5.2,2.1-5.2,4.5c0,2.3,1.2,3.6,6.1,6.5
		c7.7,4.4,10.5,9.8,10.5,15.7c0,10.6-7.7,16.4-18.4,16.4c-4.4,0-9.5-1.2-11.9-3L954.4,99.3z"/>
</g>
<g>
	<path fill="#FFFFFF" d="M20.6,548.7l2.1,2.1l1.1-9.3l-9.6,1l2.1,2.1l-4,4l-4-4l2.1-2.1l-9.6-1l1.1,9.3l2.1-2.1l4.1,4l-3.8,3.7l0,0
		c-0.9,1.5-1.4,3.1-1.4,4.8c0,5.1,4.2,9.2,9.5,9.2c5.2,0,9.5-4.1,9.5-9.2c0-1.7-0.5-3.4-1.4-4.9l0,0l-3.8-3.7L20.6,548.7z
		 M15.1,559.6c0.3,0.5,0.5,1.1,0.5,1.7c0,1.8-1.5,3.2-3.3,3.2c-1.8,0-3.3-1.4-3.3-3.2c0-0.6,0.2-1.2,0.5-1.7l0,0l2.8-2.7L15.1,559.6
		z"/>
	<g>
		<circle fill="#BFC0C2" cx="32.9" cy="543.3" r="6.5"/>
		<g>
			<path fill="#002C40" d="M33.1,543.4c0,2.1-1.2,2.6-1.9,2.6c-1.2,0-1.9-1-1.9-2.6c0-1.8,1-2.6,2-2.6
				C32.4,540.7,33.1,541.8,33.1,543.4z M30.6,543.4c0,0.9,0.1,1.6,0.6,1.6c0.4,0,0.6-0.9,0.6-1.6c0-0.7-0.1-1.6-0.6-1.6
				C30.7,541.8,30.6,542.7,30.6,543.4z"/>
			<path fill="#002C40" d="M33.8,544.7c0.2,0.1,0.6,0.3,0.9,0.3c0.4,0,0.6-0.2,0.6-0.5c0-0.3-0.1-0.4-0.6-0.7c-0.8-0.5-1-1-1-1.5
				c0-0.9,0.7-1.6,1.7-1.6c0.4,0,0.8,0.1,1,0.2l-0.2,1c-0.2-0.1-0.4-0.2-0.7-0.2c-0.3,0-0.5,0.2-0.5,0.4s0.1,0.4,0.6,0.6
				c0.8,0.4,1,1,1,1.5c0,1-0.8,1.6-1.8,1.6c-0.4,0-0.9-0.1-1.2-0.3L33.8,544.7z"/>
		</g>
	</g>
</g>
</svg>
