<?xml version="1.0" encoding="utf-8"?>
<!-- Generator: Adobe Illustrator 17.1.0, SVG Export Plug-In . SVG Version: 6.00 Build 0)  -->
<!DOCTYPE svg PUBLIC "-//W3C//DTD SVG 1.1//EN" "http://www.w3.org/Graphics/SVG/1.1/DTD/svg11.dtd">
<svg version="1.1" id="Layer_1" xmlns="http://www.w3.org/2000/svg"  x="0px" y="0px"
	 viewBox="-204 0 799.3 841.9" enable-background="new -204 0 799.3 841.9" xml:space="preserve">
<g>
	<path fill="#FFFFFF" d="M332.5,333.2l34.6,33.7l17.4-153.4l-157.2,17l34.6,33.8l-66.3,65.4l-66.3-65.4l34.6-33.8l-157-17
		l17.4,153.4l34.6-33.7l67,65.4l-62.1,61.1l-0.1-0.1c-15.2,24-23.3,51.5-23.3,79.6c0,83.6,69.8,151.7,155.5,151.7
		s155.5-68,155.5-151.7c0-28.2-8-55.8-23.1-79.7l-0.4,0.2l-62.1-61.1L332.5,333.2z M241.8,511.9c5,8.2,7.8,17.5,7.8,27.3
		c0,29.1-24.2,52.7-54,52.7c-29.7,0-54-23.6-54-52.6c0-9.9,2.8-19.2,8.2-27.6l0,0l45.9-44.8L241.8,511.9z"/>
	<circle fill="#BFC0C2" cx="510.3" cy="227.3" r="81.1"/>
	<path fill="#002C40" d="M513.7,227.5c0,26.4-14.6,32.9-24.2,32.9c-15.1,0-24.2-11.9-24.2-32.5c0-22.8,11.9-32.9,24.5-32.9
		C504.6,195.1,513.7,207.7,513.7,227.5z M482.1,227.5c0,10.8,1.7,20,7.8,20c5.5,0,6.8-10.6,6.8-20c0-8.6-1.5-19.7-7.1-19.7
		C483.4,207.9,482.1,218.9,482.1,227.5z"/>
	<path fill="#002C40" d="M522.7,244.2c2.4,1.6,7.1,3.4,11.4,3.4s6.8-1.9,6.8-5.7c0-3.3-1.8-5.4-7.4-8.5
		c-10.3-5.8-12.8-12.4-12.8-18.3c0-11.4,8.2-20,20.8-20c5.4,0,9.5,1.3,12.8,2.8l-2.9,12.4c-2.4-1.5-5.5-2.6-8.8-2.6
		c-4.3,0-6.3,2.6-6.3,5.5c0,2.8,1.5,4.4,7.4,7.9c9.4,5.4,12.8,11.9,12.8,19.1c0,12.9-9.4,20-22.4,20c-5.4,0-11.6-1.5-14.5-3.7
		L522.7,244.2z"/>
</g>
<g>
	<path fill="#FFFFFF" d="M-614,791.3l2.6,2.6l1.3-11.3l-11.7,1.2l2.6,2.6l-4.9,4.9l-4.9-4.9l2.6-2.6l-11.7-1.2l1.3,11.3l2.6-2.6
		l5,4.9l-4.6,4.5l0,0c-1.1,1.8-1.7,3.8-1.7,5.8c0,6.2,5.1,11.2,11.6,11.2c6.3,0,11.6-5,11.6-11.2c0-2.1-0.6-4.1-1.7-6l0,0l-4.6-4.5
		L-614,791.3z M-620.7,804.5c0.4,0.6,0.6,1.3,0.6,2.1c0,2.2-1.8,3.9-4,3.9c-2.2,0-4-1.7-4-3.9c0-0.7,0.2-1.5,0.6-2.1l0,0l3.4-3.3
		L-620.7,804.5z"/>
	<g>
		<circle fill="#BFC0C2" cx="-599.1" cy="784.7" r="7.9"/>
		<g>
			<path fill="#002C40" d="M-598.8,784.8c0,2.6-1.5,3.2-2.3,3.2c-1.5,0-2.3-1.2-2.3-3.2c0-2.2,1.2-3.2,2.4-3.2
				C-599.7,781.5-598.8,782.9-598.8,784.8z M-601.9,784.8c0,1.1,0.1,1.9,0.7,1.9c0.5,0,0.7-1.1,0.7-1.9c0-0.9-0.1-1.9-0.7-1.9
				C-601.7,782.9-601.9,784-601.9,784.8z"/>
			<path fill="#002C40" d="M-598,786.4c0.2,0.1,0.7,0.4,1.1,0.4c0.5,0,0.7-0.2,0.7-0.6s-0.1-0.5-0.7-0.9c-1-0.6-1.2-1.2-1.2-1.8
				c0-1.1,0.9-1.9,2.1-1.9c0.5,0,1,0.1,1.2,0.2l-0.2,1.2c-0.2-0.1-0.5-0.2-0.9-0.2c-0.4,0-0.6,0.2-0.6,0.5s0.1,0.5,0.7,0.7
				c1,0.5,1.2,1.2,1.2,1.8c0,1.2-1,1.9-2.2,1.9c-0.5,0-1.1-0.1-1.5-0.4L-598,786.4z"/>
		</g>
	</g>
</g>
</svg>
