<?xml version="1.0" encoding="utf-8"?>
<!-- Generator: Adobe Illustrator 17.1.0, SVG Export Plug-In . SVG Version: 6.00 Build 0)  -->
<!DOCTYPE svg PUBLIC "-//W3C//DTD SVG 1.1//EN" "http://www.w3.org/Graphics/SVG/1.1/DTD/svg11.dtd">
<svg version="1.1" id="Layer_1" xmlns="http://www.w3.org/2000/svg"  x="0px" y="0px"
	 viewBox="-137 0 732.3 841.9" enable-background="new -137 0 732.3 841.9" xml:space="preserve">
<g>
	<path fill="#002C40" d="M332.3,330.7l34.7,33.8L384.4,211L227,228l34.7,33.8l-66.5,65.5L128.8,262l34.7-34L6,211l17.4,153.6
		l34.7-33.8l67.1,65.5L63,457.5l-0.1-0.1c-15.2,24-23.3,51.6-23.4,79.7c0,83.8,69.9,151.9,155.7,151.9s155.7-68.2,155.7-151.9
		c0-28.2-8-55.9-23.1-79.9l-0.4,0.2l-62.2-61.2L332.3,330.7z M241.6,509.8c5,8.2,7.8,17.7,7.8,27.3c0,29.1-24.2,52.7-54,52.7
		s-54-23.6-54-52.7c0-9.9,2.8-19.2,8.2-27.6l0,0l46-44.9L241.6,509.8z"/>
	<g>
		<circle fill="#BFC0C2" cx="510.6" cy="229.2" r="81.2"/>
		<g>
			<path fill="#002C40" d="M514,229.6c0,26.4-14.6,33-24.2,33c-15.2,0-24.2-11.9-24.2-32.5c0-22.9,11.9-33,24.5-33
				C504.8,197,514,209.6,514,229.6z M482.3,229.6c0,10.8,1.7,20,7.8,20c5.5,0,6.8-10.6,6.8-20c0-8.6-1.5-19.7-7.2-19.7
				C483.5,209.9,482.3,220.8,482.3,229.6z"/>
			<path fill="#002C40" d="M523,246.1c2.4,1.6,7.2,3.4,11.4,3.4c4.4,0,6.8-1.9,6.8-5.7c0-3.3-1.8-5.4-7.4-8.5
				c-10.3-5.8-12.8-12.4-12.8-18.3c0-11.4,8.2-20,20.9-20c5.4,0,9.5,1.3,12.8,2.8l-3,12.4c-2.4-1.5-5.5-2.6-8.8-2.6
				c-4.3,0-6.3,2.6-6.3,5.5c0,2.9,1.5,4.4,7.4,7.9c9.4,5.4,12.8,11.9,12.8,19.2c0,13-9.4,20-22.4,20c-5.4,0-11.6-1.5-14.5-3.7
				L523,246.1z"/>
		</g>
	</g>
</g>
</svg>
